<?xml version="1.0" encoding="utf-8"?>
<!-- Generator: Adobe Illustrator 26.4.1, SVG Export Plug-In . SVG Version: 6.00 Build 0)  -->
<svg version="1.0" id="katman_1" xmlns="http://www.w3.org/2000/svg" xmlns:xlink="http://www.w3.org/1999/xlink" x="0px" y="0px"
	 viewBox="0 0 841.89 595.28" style="enable-background:new 0 0 841.89 595.28;" xml:space="preserve">
<style type="text/css">
	.st0{fill:#F07F19;}
	.st1{fill:#FFCF02;}
	.st2{fill:#E52331;}
	.st3{fill:#fff;}
</style>
<circle class="st0" cx="198" cy="297.27" r="123.87"/>
<path class="st1" d="M198,180.11c-57.09,0.28-103.23,46.65-103.23,103.74c0,5.68,0.52,10.84,1.03,16.52
	c13.42-35.1,50.06-60.39,93.42-60.39c33.65-0.53,65.3,15.97,84.13,43.87h0.52c9.92-0.16,19.59,3.12,27.36,9.29
	c0.43-3.08,0.6-6.18,0.52-9.29C301.74,226.56,255.29,180.11,198,180.11"/>
<path class="st2" d="M301.22,293.14c-7.77-6.17-17.44-9.45-27.36-9.29h-0.52c-30.45,0-62.45,26.32-71.74,59.36
	c-4.87,14.79-2.58,31.01,6.19,43.87H198c-50.59-0.28-93.68-36.84-102.19-86.71c-3.3,9.46-5.04,19.4-5.16,29.42
	c0.16,24.83,11.08,48.36,29.94,64.52c11.86,8.98,25.11,15.96,39.23,20.65c12.3,4.19,25.21,6.28,38.19,6.19
	c35.63-0.03,69.5-15.46,92.9-42.32c8.05-8.9,14.67-19,19.61-29.94c0.52-2.06,1.55-3.61,2.06-5.68
	C318.26,322.05,313.61,303.98,301.22,293.14"/>
<path class="st3" d="M761.1,330.82c-19.1,0-27.87-10.32-27.87-29.42V182.69h-59.36v88.26c-19.47-42.19-69.45-60.6-111.64-41.14
	c-18.17,8.38-32.75,22.97-41.14,41.14v-46.97h-58.32v82.58c0,14.97-8.26,25.29-21.16,25.29s-21.16-10.32-21.16-25.29v-82.58h-58.84
	v83.61c0,51.1,31.48,83.1,80,83.1c39.23,0,67.1-21.68,75.87-56.77c15.25,44.19,63.43,67.66,107.62,52.41
	c24.05-8.3,43.1-26.98,51.86-50.87c8.77,37.68,37.16,54.19,75.36,54.19h14.97v-58.84H761.1z M597.48,331.85
	c-13.97,0-25.29-11.32-25.29-25.29s11.32-25.29,25.29-25.29s25.29,11.32,25.29,25.29S611.45,331.85,597.48,331.85L597.48,331.85
	L597.48,331.85z"/>
</svg>
